<svg data-v-5f19e91b="" xmlns="http://www.w3.org/2000/svg" width="242" height="90" viewBox="0 0 242 90"><!----> <!----> <!----> <g data-v-5f19e91b="" id="7f210394-7cfe-ed7e-c69f-d5ff158fc39c" fill="black" transform="matrix(4.454342896107062,0,0,4.454342896107062,84.40351855405322,-6.336303732944607)"><path d="M4.24 7.70C3.35 7.70 2.70 8.25 2.38 9.28C2.39 8.23 1.96 7.71 1.23 7.71C0.67 7.71 0.34 8.01 0.34 8.43C0.34 8.60 0.39 8.74 0.50 8.89C0.59 8.72 0.77 8.69 0.87 8.69C1.13 8.69 1.26 8.89 1.26 9.41L1.26 14.41C1.26 14.88 1.60 15.16 1.99 15.16C2.35 15.15 2.62 14.98 2.73 14.87C2.52 14.29 2.52 13.80 2.52 11.66C2.52 9.30 3.19 8.37 3.92 8.37C4.41 8.37 4.69 8.64 4.69 9.21C4.69 9.53 4.65 9.77 4.42 10.11C4.54 10.23 4.73 10.30 5.00 10.29C5.47 10.26 5.88 9.83 5.88 9.18C5.88 8.25 5.19 7.70 4.24 7.70ZM12.32 13.17C12.03 13.93 11.24 14.36 10.23 14.36C9.02 14.36 8.08 13.72 7.95 11.79C8.44 11.84 8.93 11.87 9.44 11.87C11.37 11.87 12.59 11.14 12.59 9.74C12.59 8.40 11.48 7.70 9.97 7.70C7.77 7.70 6.58 9.16 6.58 11.48C6.58 13.90 7.87 15.20 9.91 15.20C11.12 15.20 12.08 14.76 12.43 13.89C12.63 13.43 12.50 13.24 12.32 13.17ZM9.91 8.23C10.56 8.23 11.23 8.51 11.23 9.56C11.23 11.00 10.11 11.33 8.88 11.33C8.55 11.31 8.23 11.30 7.94 11.27C7.95 9.28 8.72 8.23 9.91 8.23ZM16.27 18.26C18.30 18.26 19.80 17.29 19.80 14.39L19.80 8.62C19.12 7.95 17.99 7.70 17.02 7.70C14.42 7.70 13.78 9.69 13.78 11.55C13.78 14.06 14.74 15.06 16.25 15.06C17.40 15.06 18.20 14.48 18.54 13.47L18.54 14.45C18.54 16.56 17.84 17.77 16.31 17.77C15.53 17.77 15.01 17.37 15.01 16.63C15.01 16.28 15.13 15.97 15.40 15.76C15.29 15.61 15.08 15.53 14.78 15.53C14.25 15.53 13.83 15.95 13.83 16.59C13.83 17.75 14.97 18.26 16.27 18.26ZM16.60 14.41C15.58 14.41 15.12 13.64 15.12 11.68C15.12 9.90 15.40 8.23 17.02 8.23C17.65 8.23 18.23 8.40 18.54 8.72L18.52 11.55C18.52 12.98 18.00 14.41 16.60 14.41ZM22.54 6.69C22.99 6.69 23.35 6.33 23.35 5.88C23.35 5.42 22.99 5.05 22.54 5.05C22.08 5.05 21.71 5.42 21.71 5.88C21.71 6.33 22.08 6.69 22.54 6.69ZM23.23 13.34L23.21 8.39C23.21 7.95 22.92 7.70 22.50 7.70C22.13 7.70 21.90 7.88 21.77 7.98C21.94 8.43 21.97 9.00 21.97 9.55L21.98 14.49C21.98 14.92 22.29 15.19 22.69 15.19C23.06 15.19 23.31 15.01 23.42 14.90C23.25 14.45 23.23 13.89 23.23 13.34ZM26.89 15.16C27.45 15.16 27.94 14.85 27.94 14.39C27.94 14.25 27.90 14.08 27.78 13.92C27.69 14.10 27.47 14.18 27.29 14.18C26.94 14.18 26.75 13.93 26.75 13.44L26.77 7.81C26.77 6.43 26.78 5.67 26.96 5.08C26.85 4.97 26.60 4.79 26.24 4.79C25.80 4.79 25.49 5.04 25.49 5.49L25.49 13.52C25.49 14.55 26.01 15.16 26.89 15.16ZM32.10 15.20C34.16 15.20 35.35 13.82 35.35 11.47C35.35 9.10 34.16 7.70 32.10 7.70C30.04 7.70 28.84 9.10 28.84 11.47C28.84 13.82 30.04 15.20 32.10 15.20ZM32.10 14.67C30.86 14.67 30.20 13.54 30.20 11.47C30.20 9.37 30.86 8.23 32.10 8.23C33.33 8.23 33.99 9.37 33.99 11.47C33.99 13.54 33.33 14.67 32.10 14.67Z"></path></g> <!----> <g data-v-5f19e91b="" id="ff9cc13c-8107-760b-78e1-94f7623f4b8b" transform="matrix(1,0,0,1,-15.958999633789062,-5)" stroke="none" fill="black"><path d="M27.913 36.881l2.413-1.289-2.699-9.312-4.185 2.233-3.867-7.242-3.218 1.718 3.869 7.241-4.185 2.236 6.239 7.421 2.413-1.287 19.34 36.211H28.689l4.377-14.98-2.642-4.947L18.715 95h63.244L57.913 12.564 50.336 5l-7.573 7.564-8.706 30.059L36.7 47.57l8.637-29.831h10.486l16.65 57.072H48.169"></path></g></svg>